<svg width="200" height="57" viewBox="0 0 200 57" fill="none" xmlns="http://www.w3.org/2000/svg">
<g clip-path="url(#clip0_3630_12)">
<path fill-rule="evenodd" clip-rule="evenodd" d="M0 42.4766V56.3414H1.31598V49.3693L1.65042 49.7442L8.34666 56.3774H10.2079L2.65377 49.0665L9.44452 42.5126H7.82317L1.854 48.4176L1.37415 48.9079V42.5126L0 42.4766ZM10.2879 49.427C10.2753 50.4589 10.44 51.4854 10.775 52.4624C11.0623 53.2876 11.5205 54.044 12.1201 54.6831C12.6817 55.2742 13.3665 55.7367 14.1268 56.0386C15.7289 56.6541 17.5051 56.6541 19.1072 56.0386C19.8706 55.7387 20.5582 55.2759 21.1211 54.6831C21.7207 54.044 22.1789 53.2876 22.4662 52.4624C22.8012 51.4854 22.966 50.4589 22.9533 49.427C22.9524 48.6991 22.8695 47.9736 22.7061 47.264C22.5575 46.5866 22.3127 45.9337 21.9791 45.3245C21.6556 44.7318 21.2299 44.1998 20.7212 43.7527C20.2021 43.2959 19.6 42.9411 18.9472 42.7073C17.4561 42.1981 15.836 42.1981 14.3449 42.7073C13.6936 42.9444 13.0922 43.2988 12.5709 43.7527C12.0661 44.2034 11.641 44.7347 11.3131 45.3245C10.9823 45.9349 10.7376 46.5875 10.586 47.264C10.4192 47.973 10.3362 48.6989 10.3388 49.427H10.2879ZM11.742 49.427C11.7324 48.6802 11.8253 47.9355 12.0183 47.2135C12.1665 46.6157 12.4121 46.0458 12.7454 45.5264C13.044 45.0755 13.4177 44.6781 13.8505 44.3512C14.2538 44.0401 14.7057 43.7965 15.1883 43.6302C15.6589 43.4833 16.1491 43.408 16.6424 43.4067C17.1356 43.4092 17.6257 43.4845 18.0966 43.6302C18.5784 43.7982 19.0301 44.0416 19.4343 44.3512C19.8666 44.6764 20.2381 45.0742 20.5322 45.5264C20.8654 46.0459 21.1109 46.6157 21.2593 47.2135C21.6277 48.669 21.6277 50.1922 21.2593 51.6477C21.1078 52.2399 20.8624 52.8045 20.5322 53.3204C20.2378 53.7662 19.8661 54.1567 19.4343 54.474C19.0308 54.7742 18.5783 55.0034 18.0966 55.1517C17.6266 55.301 17.1359 55.3764 16.6424 55.3752C16.1488 55.3776 15.658 55.3021 15.1883 55.1517C14.7059 55.0051 14.2531 54.7757 13.8505 54.474C13.4182 54.1551 13.0444 53.7649 12.7454 53.3204C12.4152 52.8045 12.1698 52.2399 12.0183 51.6477C11.8254 50.9233 11.7324 50.1762 11.742 49.427ZM26.0869 42.4766V56.3414H27.4029V45.4687L27.323 43.8609H27.3811L28.1082 45.3462L34.819 56.3414H36.5203V42.4766H35.197V53.3492L35.2407 54.9571H35.197L34.579 53.6881L27.7665 42.4766H26.0869ZM39.494 55.8583C40.011 56.0626 40.5466 56.2172 41.0935 56.3198C41.6401 56.4215 42.1951 56.4722 42.7512 56.4712C43.4737 56.4852 44.1935 56.3804 44.8815 56.1611C45.4201 55.994 45.9161 55.7136 46.3356 55.3392C46.6926 55.0144 46.9731 54.6156 47.1572 54.1712C47.3315 53.7455 47.418 53.2895 47.4117 52.8301C47.4253 52.338 47.3413 51.8481 47.1645 51.3881C46.9984 50.9868 46.7509 50.6236 46.4374 50.3211C46.1068 49.992 45.7411 49.6994 45.3468 49.4486C44.9178 49.1819 44.438 48.9079 43.8927 48.6195L42.7512 48.0066C42.4264 47.8287 42.1175 47.6237 41.8278 47.3938C41.5736 47.1967 41.3611 46.9516 41.2026 46.6728C41.0491 46.3816 40.9716 46.0568 40.9772 45.7283C40.974 45.5396 40.9911 45.3511 41.0281 45.1659C41.0739 44.9522 41.1498 44.7459 41.2534 44.5531C41.3752 44.3324 41.5409 44.1386 41.7406 43.9835C41.9908 43.7914 42.2777 43.6515 42.584 43.5725C43.0029 43.4573 43.4362 43.4015 43.8709 43.4067C44.3592 43.4062 44.8464 43.4545 45.325 43.5509C45.8246 43.6505 46.3121 43.8028 46.7791 44.0051L46.9609 42.7794C46.4517 42.6066 45.9288 42.4764 45.3977 42.3901C44.9165 42.3169 44.4304 42.2808 43.9436 42.2819C43.343 42.2719 42.7439 42.3422 42.1623 42.491C41.7196 42.6036 41.301 42.7941 40.9263 43.0534C40.333 43.4675 39.9139 44.0833 39.7484 44.7838C39.6677 45.0921 39.6286 45.4097 39.6321 45.7283C39.6195 46.2252 39.7215 46.7184 39.9302 47.1703C40.1188 47.5593 40.3804 47.9092 40.7009 48.2013C41.0175 48.4918 41.3663 48.7457 41.7406 48.9584C42.1114 49.1747 42.4676 49.3765 42.8457 49.5568L44.009 50.1841C44.3706 50.3919 44.7114 50.6333 45.0269 50.9051C45.3279 51.1482 45.5754 51.45 45.754 51.7919C45.9445 52.1568 46.0396 52.5634 46.0302 52.9743C46.0401 53.2805 45.9797 53.5849 45.8538 53.8647C45.7279 54.1444 45.5396 54.3922 45.3032 54.5894C45.0724 54.7788 44.8153 54.9342 44.5398 55.0508C44.2611 55.1665 43.9712 55.2535 43.6746 55.3104C43.3921 55.3666 43.1048 55.3956 42.8166 55.3969C42.4798 55.3933 42.144 55.3595 41.8133 55.2959C41.4467 55.2275 41.0848 55.136 40.73 55.022C40.3764 54.9124 40.0313 54.7775 39.6975 54.6182L39.5594 55.9088L39.494 55.8583ZM48.2841 42.4477V43.6013H52.4793V56.3414H53.7953V43.6013H57.9904V42.4766L48.2841 42.4477ZM62.7308 42.4477H64.4467L70.0014 56.3126H68.5473L67.006 52.4912H60.0916L58.5575 56.3126H57.1034L62.6581 42.4477H62.7308ZM63.6106 43.7311H63.567L63.0798 45.0433L60.5424 51.3593H66.577L64.0686 45.0433L63.6106 43.7311ZM72.3353 42.4477V56.3126H73.6513V45.4687L73.5713 43.8609H73.6295L74.3565 45.3462L81.0673 56.3414H82.7686V42.4766H81.4454V53.3492L81.489 54.9571H81.4454L80.8274 53.6881L73.9857 42.4766L72.3353 42.4477ZM85.0807 42.4477V43.6013H89.254V56.3414H90.57V43.6013H94.7651V42.4766L85.0807 42.4477ZM97.0845 42.4477V56.3126H98.4077V42.4766L97.0845 42.4477ZM102.399 42.4477V56.3126H103.715V45.4687L103.635 43.8609H103.701L104.428 45.3462L111.146 56.3414H112.84V42.4766H111.524V53.3492L111.56 54.9571H111.524L110.906 53.6881L104.093 42.4766L102.399 42.4477ZM131.111 54.7047C130.746 54.8482 130.372 54.9663 129.991 55.058C129.592 55.1587 129.186 55.2334 128.777 55.2815C128.357 55.3331 127.935 55.3595 127.512 55.3608C126.783 55.3602 126.061 55.2257 125.382 54.9643C124.718 54.7005 124.117 54.3027 123.616 53.7964C123.115 53.29 122.726 52.6859 122.473 52.0226C122.179 51.2587 122.031 50.4468 122.037 49.6289C122.031 48.8012 122.161 47.978 122.423 47.1919C122.661 46.4721 123.036 45.804 123.528 45.2236C124.01 44.6606 124.614 44.2122 125.294 43.9114C126.038 43.5839 126.844 43.4192 127.657 43.4283H128.326C128.705 43.4582 129.081 43.5111 129.453 43.5869C129.949 43.6843 130.436 43.8242 130.907 44.0051L131.024 42.8154C130.699 42.6915 130.366 42.5879 130.028 42.5054C129.68 42.4274 129.328 42.372 128.973 42.3396C128.587 42.2977 128.199 42.2785 127.81 42.2819C126.892 42.2666 125.978 42.4031 125.105 42.6857C124.367 42.9249 123.681 43.3017 123.084 43.796C122.528 44.2518 122.06 44.8039 121.703 45.4255C121.343 46.0475 121.076 46.7177 120.91 47.4154C120.742 48.1244 120.657 48.8501 120.656 49.5784C120.655 50.274 120.743 50.9669 120.918 51.6405C121.097 52.2996 121.369 52.9306 121.725 53.5151C122.093 54.0997 122.56 54.6168 123.106 55.0436C123.696 55.4996 124.363 55.8487 125.076 56.0746C125.916 56.3346 126.792 56.4611 127.672 56.4495C128.134 56.4502 128.595 56.4237 129.053 56.3702C129.475 56.3125 129.868 56.2477 130.224 56.1683C130.58 56.089 130.893 56.0025 131.169 55.916V54.6687L131.111 54.7047ZM133.707 42.4477V56.3126H135.023V49.6938H142.293V56.3126H143.616V42.4766H142.257V48.5979H134.986V42.4766L133.707 42.4477ZM151.461 42.4477L145.914 56.3126H147.332L148.866 52.4912H155.78L157.322 56.3126H158.739L153.185 42.4477H151.461ZM152.341 43.7311L152.806 45.0433L155.344 51.3593H149.309L151.781 45.0433L152.239 43.7311H152.341ZM157.431 42.4477H158.965L162.862 48.5907L163.342 49.3982L163.96 48.4464L167.857 42.4477H169.471L163.981 50.5301V56.2981H162.658V50.5301L157.431 42.4477ZM171.674 42.4477V56.3126H172.99V49.3693L173.331 49.7442L180.02 56.3774H181.882L174.32 49.0305L181.111 42.4766H179.41L173.44 48.3816L172.961 48.8718V42.4766L171.674 42.4477ZM184.295 42.4477V56.3126H185.619V42.4766L184.295 42.4477ZM189.61 42.4477V56.3126H190.926V45.4687L190.846 43.8609H190.912L191.639 45.3462L198.313 56.3414H200.007V42.4766H198.677V53.3492L198.713 54.9571H198.677L198.059 53.6881L191.246 42.4766L189.61 42.4477Z" fill="white"/>
<path fill-rule="evenodd" clip-rule="evenodd" d="M92.1987 26.8525L90.6355 28.4027H109.394L107.83 26.8525L106.267 25.3024H100.015L75.0037 0.5L100.015 19.1018L125.025 0.5L100.015 25.3024H93.7618L92.1987 26.8525Z" fill="white"/>
</g>
<defs>
<clipPath id="clip0_3630_12">
<rect width="200" height="56" fill="white" transform="translate(0 0.5)"/>
</clipPath>
</defs>
</svg>
